<?xml version="1.0" encoding="UTF-8" standalone="no"?>
<!-- Created with Inkscape (http://www.inkscape.org/) -->

<svg
   xmlns:dc="http://purl.org/dc/elements/1.1/"
   xmlns:cc="http://creativecommons.org/ns#"
   xmlns:rdf="http://www.w3.org/1999/02/22-rdf-syntax-ns#"
   xmlns:svg="http://www.w3.org/2000/svg"
   xmlns="http://www.w3.org/2000/svg"
   xmlns:sodipodi="http://sodipodi.sourceforge.net/DTD/sodipodi-0.dtd"
   xmlns:inkscape="http://www.inkscape.org/namespaces/inkscape"
   width="210mm"
   height="297mm"
   viewBox="0 0 744.09448819 1052.3622047"
   id="svg2"
   version="1.1"
   inkscape:version="0.91 r13725"
   sodipodi:docname="Clints.svg"
   inkscape:export-filename="/home/cefleet/Projects/CGDC/charecter.png"
   inkscape:export-xdpi="120.455"
   inkscape:export-ydpi="120.455">
  <defs
     id="defs4" />
  <sodipodi:namedview
     id="base"
     pagecolor="#ffffff"
     bordercolor="#666666"
     borderopacity="1.0"
     inkscape:pageopacity="0.0"
     inkscape:pageshadow="2"
     inkscape:zoom="0.98994949"
     inkscape:cx="65.06795"
     inkscape:cy="487.9773"
     inkscape:document-units="px"
     inkscape:current-layer="layer1"
     showgrid="false"
     inkscape:window-width="1920"
     inkscape:window-height="1008"
     inkscape:window-x="0"
     inkscape:window-y="24"
     inkscape:window-maximized="1" />
  <metadata
     id="metadata7">
    <rdf:RDF>
      <cc:Work
         rdf:about="">
        <dc:format>image/svg+xml</dc:format>
        <dc:type
           rdf:resource="http://purl.org/dc/dcmitype/StillImage" />
        <dc:title></dc:title>
      </cc:Work>
    </rdf:RDF>
  </metadata>
  <g
     inkscape:label="Layer 1"
     inkscape:groupmode="layer"
     id="layer1">
    <ellipse
       style="fill:#808080;fill-opacity:1;stroke:none;stroke-width:4;stroke-linecap:square;stroke-linejoin:miter;stroke-miterlimit:4;stroke-dasharray:none;stroke-opacity:1"
       id="path4136"
       cx="371.88077"
       cy="153.41283"
       rx="115.97018"
       ry="126.69602" />
    <rect
       style="fill:#808080;fill-opacity:1;stroke:none;stroke-width:4;stroke-linecap:square;stroke-linejoin:miter;stroke-miterlimit:4;stroke-dasharray:none;stroke-opacity:1"
       id="rect4140"
       width="225.4525"
       height="301.00934"
       x="259.15451"
       y="293.71375" />
    <rect
       style="fill:#808080;fill-opacity:1;stroke:none;stroke-width:4;stroke-linecap:square;stroke-linejoin:miter;stroke-miterlimit:4;stroke-dasharray:none;stroke-opacity:1"
       id="rect4140-3"
       width="128.49887"
       height="267.32877"
       x="195.95578"
       y="257.62613"
       transform="matrix(0.96819261,0.25020605,-0.22883553,0.9734651,0,0)" />
    <rect
       style="fill:#808080;fill-opacity:1;stroke:none;stroke-width:4;stroke-linecap:square;stroke-linejoin:miter;stroke-miterlimit:4;stroke-dasharray:none;stroke-opacity:1"
       id="rect4140-3-5"
       width="128.49887"
       height="267.32877"
       x="-527.40601"
       y="440.96869"
       transform="matrix(-0.96819261,0.25020605,0.22883553,0.9734651,0,0)" />
    <rect
       style="fill:#808080;fill-opacity:1;stroke:none;stroke-width:4;stroke-linecap:square;stroke-linejoin:miter;stroke-miterlimit:4;stroke-dasharray:none;stroke-opacity:1"
       id="rect4140-3-5-3"
       width="128.49887"
       height="267.32877"
       x="-351.59857"
       y="715.94287"
       transform="matrix(-0.96819261,0.25020605,0.22883553,0.9734651,0,0)" />
    <rect
       style="fill:#808080;fill-opacity:1;stroke:none;stroke-width:4;stroke-linecap:square;stroke-linejoin:miter;stroke-miterlimit:4;stroke-dasharray:none;stroke-opacity:1"
       id="rect4140-3-5-3-5"
       width="128.49887"
       height="267.32877"
       x="373.56232"
       y="529.5575"
       transform="matrix(0.96819261,0.25020605,-0.22883553,0.9734651,0,0)" />
    <ellipse
       style="fill:#ffffff;fill-opacity:1;stroke:none;stroke-width:4;stroke-linecap:square;stroke-linejoin:miter;stroke-miterlimit:4;stroke-dasharray:none;stroke-opacity:1"
       id="path4136-6"
       cx="371.88077"
       cy="153.41283"
       rx="99.065422"
       ry="108.22779" />
    <rect
       style="fill:#ffffff;fill-opacity:1;stroke:none;stroke-width:4;stroke-linecap:square;stroke-linejoin:miter;stroke-miterlimit:4;stroke-dasharray:none;stroke-opacity:1"
       id="rect4140-3-2"
       width="111.44912"
       height="231.85849"
       x="204.48065"
       y="275.36127"
       transform="matrix(0.96819261,0.25020605,-0.22883553,0.9734651,0,0)" />
    <rect
       style="fill:#ffffff;fill-opacity:1;stroke:none;stroke-width:4;stroke-linecap:square;stroke-linejoin:miter;stroke-miterlimit:4;stroke-dasharray:none;stroke-opacity:1"
       id="rect4140-3-2-9"
       width="111.44912"
       height="231.85849"
       x="-518.88116"
       y="458.70386"
       transform="matrix(-0.96819261,0.25020605,0.22883553,0.9734651,0,0)" />
    <rect
       style="fill:#ffffff;fill-opacity:1;stroke:none;stroke-width:4;stroke-linecap:square;stroke-linejoin:miter;stroke-miterlimit:4;stroke-dasharray:none;stroke-opacity:1"
       id="rect4140-1"
       width="200.5782"
       height="267.7988"
       x="271.59167"
       y="310.31903" />
    <rect
       style="fill:#ffffff;fill-opacity:1;stroke:none;stroke-width:4;stroke-linecap:square;stroke-linejoin:miter;stroke-miterlimit:4;stroke-dasharray:none;stroke-opacity:1"
       id="rect4140-3-5-3-5-2"
       width="111.27602"
       height="231.49838"
       x="382.17374"
       y="547.47266"
       transform="matrix(0.96819261,0.25020605,-0.22883553,0.9734651,0,0)" />
    <rect
       style="fill:#ffffff;fill-opacity:1;stroke:none;stroke-width:4;stroke-linecap:square;stroke-linejoin:miter;stroke-miterlimit:4;stroke-dasharray:none;stroke-opacity:1"
       id="rect4140-3-5-3-5-2-7"
       width="111.27602"
       height="231.49838"
       x="-342.98715"
       y="733.85809"
       transform="matrix(-0.96819261,0.25020605,0.22883553,0.9734651,0,0)" />
    <rect
       style="fill:#808080;fill-opacity:1;stroke:none;stroke-width:4;stroke-linecap:square;stroke-linejoin:miter;stroke-miterlimit:4;stroke-dasharray:none;stroke-opacity:1"
       id="rect4140-3-3"
       width="113.50658"
       height="113.02281"
       x="203.96242"
       y="543.43835"
       transform="matrix(0.97213875,0.23440616,-0.23639738,0.97165646,0,0)" />
    <rect
       style="fill:#ffffff;fill-opacity:1;stroke:none;stroke-width:4;stroke-linecap:square;stroke-linejoin:miter;stroke-miterlimit:4;stroke-dasharray:none;stroke-opacity:1"
       id="rect4140-3-2-6"
       width="88.914268"
       height="88.535309"
       x="215.55026"
       y="555.29041"
       transform="matrix(0.97213875,0.23440616,-0.23639738,0.97165646,0,0)" />
    <rect
       style="fill:#808080;fill-opacity:1;stroke:none;stroke-width:4;stroke-linecap:square;stroke-linejoin:miter;stroke-miterlimit:4;stroke-dasharray:none;stroke-opacity:1"
       id="rect4140-3-3-7"
       width="113.50658"
       height="113.02281"
       x="-517.12958"
       y="716.95306"
       transform="matrix(-0.97213875,0.23440616,0.23639738,0.97165646,0,0)" />
    <rect
       style="fill:#ffffff;fill-opacity:1;stroke:none;stroke-width:4;stroke-linecap:square;stroke-linejoin:miter;stroke-miterlimit:4;stroke-dasharray:none;stroke-opacity:1"
       id="rect4140-3-2-6-5"
       width="88.914268"
       height="88.535309"
       x="-505.54169"
       y="728.80511"
       transform="matrix(-0.97213875,0.23440616,0.23639738,0.97165646,0,0)" />
    <rect
       style="fill:#808080;fill-opacity:1;stroke:none;stroke-width:4;stroke-linecap:square;stroke-linejoin:miter;stroke-miterlimit:4;stroke-dasharray:none;stroke-opacity:1"
       id="rect4140-3-3-3"
       width="233.77783"
       height="113.03987"
       x="224.93292"
       y="845.22913"
       transform="matrix(0.9864721,0.16392925,-0.1798701,0.98369037,0,0)" />
    <rect
       style="fill:#ffffff;fill-opacity:1;stroke:none;stroke-width:4;stroke-linecap:square;stroke-linejoin:miter;stroke-miterlimit:4;stroke-dasharray:none;stroke-opacity:1"
       id="rect4140-3-2-6-56"
       width="202.22964"
       height="88.552505"
       x="242.18987"
       y="857.229"
       transform="matrix(0.98652918,0.16358537,-0.18190818,0.98331552,0,0)" />
    <rect
       style="fill:#808080;fill-opacity:1;stroke:none;stroke-width:4;stroke-linecap:square;stroke-linejoin:miter;stroke-miterlimit:4;stroke-dasharray:none;stroke-opacity:1"
       id="rect4140-3-3-3-2"
       width="233.77783"
       height="113.03987"
       x="-503.09326"
       y="966.55267"
       transform="matrix(-0.9864721,0.16392925,0.1798701,0.98369037,0,0)" />
    <rect
       style="fill:#ffffff;fill-opacity:1;stroke:none;stroke-width:4;stroke-linecap:square;stroke-linejoin:miter;stroke-miterlimit:4;stroke-dasharray:none;stroke-opacity:1"
       id="rect4140-3-2-6-56-9"
       width="202.22964"
       height="88.552505"
       x="-485.58951"
       y="978.30316"
       transform="matrix(-0.98652918,0.16358537,0.18190818,0.98331552,0,0)" />
    <ellipse
       style="fill:#00ff00;fill-opacity:1;stroke:none;stroke-width:4;stroke-linecap:square;stroke-linejoin:miter;stroke-miterlimit:4;stroke-dasharray:none;stroke-opacity:1"
       id="path4247"
       cx="330.31985"
       cy="121.50662"
       rx="22.223356"
       ry="29.799501" />
    <ellipse
       style="fill:#00ffff;fill-opacity:1;stroke:none;stroke-width:4;stroke-linecap:square;stroke-linejoin:miter;stroke-miterlimit:4;stroke-dasharray:none;stroke-opacity:1"
       id="path4247-1"
       cx="409.61685"
       cy="121.00156"
       rx="20.708128"
       ry="29.294424" />
    <path
       style="fill:#ff00ff;fill-rule:evenodd;stroke:#000000;stroke-width:1px;stroke-linecap:butt;stroke-linejoin:miter;stroke-opacity:1"
       d="m 314.15744,181.61071 31.31473,18.18275 60.60915,-17.1726 31.31473,-12.12183 -9.09137,46.46702 -35.35534,21.2132 -67.68022,-10.10152 z"
       id="path4264"
       inkscape:connector-curvature="0" />
    <path
       style="fill:#0000ff;fill-rule:evenodd;stroke:#000000;stroke-width:1px;stroke-linecap:butt;stroke-linejoin:miter;stroke-opacity:1"
       d="m 442.44681,324.04222 -151.52288,-1.01015 0,160.61425 38.3858,81.82236 94.95434,-3.03046 c 0,0 20.20305,-51.51778 20.20305,-57.57869 0,-6.06092 -2.02031,-180.81731 -2.02031,-180.81731 z"
       id="path4266"
       inkscape:connector-curvature="0" />
    <path
       style="fill:#ffaaaa;fill-rule:evenodd;stroke:#000000;stroke-width:1px;stroke-linecap:butt;stroke-linejoin:miter;stroke-opacity:1"
       d="m 192.93913,345.25542 -44.44671,-5.05076 -9.09137,43.43656 -11.11168,25.25381 2.02031,26.26397 2.0203,18.18275 -15.15229,16.16244 -13.13198,40.4061 8.08122,28.28427 54.54824,17.17259 17.17259,-56.56854 -8.08122,-42.42641 21.2132,-36.36549 24.24366,-70.71068 z"
       id="path4268"
       inkscape:connector-curvature="0" />
    <path
       style="fill:#ffaaaa;fill-rule:evenodd;stroke:#000000;stroke-width:1px;stroke-linecap:butt;stroke-linejoin:miter;stroke-opacity:1"
       d="m 547.57582,342.68984 44.44671,-5.05076 9.09137,43.43656 11.11168,25.25381 -2.02031,26.26397 -2.0203,18.18276 15.15229,16.16244 13.13198,40.4061 -8.08122,28.28427 -54.54824,17.17259 -17.17259,-56.56854 8.08122,-42.42641 -21.2132,-36.3655 -24.24366,-70.71068 z"
       id="path4268-2"
       inkscape:connector-curvature="0" />
    <path
       style="fill:#ffaaaa;fill-rule:evenodd;stroke:#000000;stroke-width:1px;stroke-linecap:butt;stroke-linejoin:miter;stroke-opacity:1"
       d="m 308.02338,654.82698 -44.44671,-5.05076 -9.09137,43.43656 -11.11168,25.25381 2.02031,26.26397 2.0203,18.18275 -15.15229,16.16244 -13.13198,40.4061 8.08122,28.28427 54.54824,17.17259 17.17259,-56.56854 -8.08122,-42.42641 21.2132,-36.36549 24.24366,-70.71068 z"
       id="path4268-7"
       inkscape:connector-curvature="0" />
    <path
       style="fill:#ffaaaa;fill-rule:evenodd;stroke:#000000;stroke-width:1px;stroke-linecap:butt;stroke-linejoin:miter;stroke-opacity:1"
       d="m 447.57072,650.78638 44.44671,-5.05076 9.09137,43.43656 11.11168,25.25381 -2.02031,26.26397 -2.0203,18.18275 15.15229,16.16244 13.13198,40.4061 -8.08122,28.28427 -54.54824,17.17259 -17.17259,-56.56854 8.08122,-42.42641 -21.2132,-36.36549 -24.24366,-70.71068 z"
       id="path4268-0"
       inkscape:connector-curvature="0" />
    <path
       style="fill:#552200;fill-rule:evenodd;stroke:#000000;stroke-width:1.10235548px;stroke-linecap:butt;stroke-linejoin:miter;stroke-opacity:1"
       d="m 149.00132,612.01373 -44.54189,-11.13547 c 0,0 -17.816756,8.90838 -18.930303,17.81676 -1.113548,8.90837 -6.681283,34.51996 -6.681283,34.51996 0,0 16.703208,16.70321 23.384486,20.04384 6.68129,3.34065 27.83869,13.36257 27.83869,13.36257 l 15.58965,-24.49803 z"
       id="path4297"
       inkscape:connector-curvature="0" />
    <path
       style="fill:#552200;fill-rule:evenodd;stroke:#000000;stroke-width:1.10235548px;stroke-linecap:butt;stroke-linejoin:miter;stroke-opacity:1"
       d="m 598.27795,610.44306 44.54189,-11.13547 c 0,0 17.81675,8.90838 18.9303,17.81676 1.11355,8.90837 6.68128,34.51996 6.68128,34.51996 0,0 -16.7032,16.70321 -23.38448,20.04384 -6.68129,3.34065 -27.83869,13.36257 -27.83869,13.36257 L 601.6186,660.55269 Z"
       id="path4297-9"
       inkscape:connector-curvature="0" />
    <path
       style="fill:#552200;fill-rule:evenodd;stroke:#000000;stroke-width:1px;stroke-linecap:butt;stroke-linejoin:miter;stroke-opacity:1;fill-opacity:1"
       d="m 184.85792,913.97131 -44.44672,-5.05077 -39.39595,17.1726 -7.071063,34.34518 54.548233,18.18275 97.9848,12.12183 22.22336,-66.67007 -61.61931,-6.06091 z"
       id="path4314"
       inkscape:connector-curvature="0" />
    <path
       style="fill:#552200;fill-opacity:1;fill-rule:evenodd;stroke:#000000;stroke-width:1px;stroke-linecap:butt;stroke-linejoin:miter;stroke-opacity:1"
       d="m 551.08481,910.41851 44.44672,-5.05077 39.39595,17.1726 7.07107,34.34518 -54.54824,18.18275 -97.9848,12.12183 -22.22336,-66.67007 61.61931,-6.06091 z"
       id="path4314-3"
       inkscape:connector-curvature="0" />
  </g>
</svg>
